# Blender v3.3.1 OBJ File: ''
# www.blender.org
mtllib bird_wing.mtl
o bird_l_Cube.004
v 0.000000 1.000000 -3.000000
v -2.000000 1.000000 -3.000000
v -2.000000 1.000000 3.000000
v 0.000000 1.000000 3.000000
v 0.000000 -1.000000 3.000000
v -2.000000 -1.000000 3.000000
v -2.000000 -1.000000 -3.000000
v 0.000000 -1.000000 -3.000000
v -2.000000 1.000002 -5.000000
v -4.000000 1.000002 -5.000000
v -4.000000 1.000000 1.000000
v -2.000000 1.000000 1.000000
v -2.000000 -1.000000 1.000000
v -4.000000 -1.000000 1.000000
v -4.000000 -0.999998 -5.000000
v -2.000000 -0.999998 -5.000000
v -4.000000 1.000002 -7.000000
v -6.000000 1.000002 -7.000000
v -6.000000 1.000000 -1.000000
v -4.000000 1.000000 -1.000000
v -4.000000 -1.000000 -1.000000
v -6.000000 -1.000000 -1.000000
v -6.000000 -0.999998 -7.000000
v -4.000000 -0.999998 -7.000000
vt 0.714286 0.428571
vt 0.857143 0.428571
vt 0.857143 0.857142
vt 0.714286 0.857142
vt 0.428571 0.857143
vt 0.428571 0.714286
vt 0.571428 0.714286
vt 0.571428 0.857143
vt 0.000000 0.000000
vt 1.000000 0.000000
vt 1.000000 1.000000
vt 0.000000 1.000000
vt 0.571429 0.428571
vt 0.714286 0.428571
vt 0.714286 0.857142
vt 0.714286 0.000000
vt 0.857143 0.000000
vt 0.857143 0.428571
vt 0.714286 0.428571
vt 0.428571 0.714286
vt 0.428571 0.571428
vt 0.571428 0.571428
vt 0.571428 0.714286
vt 0.285714 0.000000
vt 0.428571 0.000000
vt 0.428571 0.428571
vt 0.285714 0.428571
vt 0.000000 1.000000
vt 0.000000 0.857143
vt 0.142857 0.857143
vt 0.142857 1.000000
vt 0.000000 0.000000
vt 1.000000 0.000000
vt 1.000000 1.000000
vt 0.000000 1.000000
vt 0.000000 0.000000
vt 0.142857 0.000000
vt 0.142857 0.428571
vt 0.000000 0.428571
vt 0.857143 0.142857
vt 0.857143 0.000000
vt 1.000000 0.000000
vt 1.000000 0.142857
vt 0.428571 0.000000
vt 0.571429 0.000000
vt 0.571429 0.428571
vt 0.428571 0.428571
vt 0.428571 0.571428
vt 0.571429 0.571428
vt 0.142857 0.857142
vt 0.000000 0.857142
vt 0.000000 0.428571
vt 0.142857 0.428571
vt 0.571428 0.000000
vt 0.714285 0.000000
vt 0.714285 0.428571
vt 0.571428 0.428571
vt 0.142857 0.428571
vt 0.285714 0.428571
vt 0.285714 0.857142
vt 0.142857 0.857142
vt 0.142857 1.000000
vt 0.142857 0.857143
vt 0.285714 0.857143
vt 0.285714 1.000000
vn 0.0000 1.0000 0.0000
vn 0.0000 -0.0000 1.0000
vn -1.0000 0.0000 0.0000
vn 0.0000 -1.0000 -0.0000
vn 1.0000 0.0000 0.0000
vn 0.0000 0.0000 -1.0000
usemtl Material.004
s 1
f 1/1/1 2/2/1 3/3/1 4/4/1
f 5/5/2 4/6/2 3/7/2 6/8/2
f 6/9/3 3/10/3 2/11/3 7/12/3
f 7/13/4 8/14/4 5/15/4 6/8/4
f 8/16/5 1/17/5 4/18/5 5/19/5
f 7/20/6 2/21/6 1/22/6 8/23/6
usemtl Material.005
f 9/24/1 10/25/1 11/26/1 12/27/1
f 13/28/2 12/29/2 11/30/2 14/31/2
f 14/32/3 11/33/3 10/34/3 15/35/3
f 15/36/4 16/37/4 13/38/4 14/39/4
f 16/37/5 9/24/5 12/27/5 13/38/5
f 15/40/6 10/41/6 9/42/6 16/43/6
usemtl Material.006
f 17/44/1 18/45/1 19/46/1 20/47/1
f 21/48/2 20/47/2 19/46/2 22/49/2
f 22/50/3 19/51/3 18/52/3 23/53/3
f 23/54/4 24/55/4 21/56/4 22/57/4
f 24/58/5 17/59/5 20/60/5 21/61/5
f 23/62/6 18/63/6 17/64/6 24/65/6
