# Blender v3.3.1 OBJ File: ''
# www.blender.org
mtllib plane.mtl
o 平面
v -0.500000 0.498075 0.500000
v 0.500000 0.498075 0.500000
v -0.500000 0.498075 -0.500000
v 0.500000 0.498075 -0.500000
v -0.500000 0.503020 0.500000
v 0.500000 0.503020 0.500000
v -0.500000 0.503020 -0.500000
v 0.500000 0.503020 -0.500000
vt 0.000000 1.000000
vt 0.000000 0.500000
vt 0.500000 0.500000
vt 0.500000 1.000000
vt 0.500000 0.500000
vt 0.000000 0.500000
vt 0.000000 0.000000
vt 0.500000 0.000000
vt 0.504040 0.000000
vt 0.504040 0.500000
vt 0.503030 0.500000
vt 0.503030 0.000000
vt 0.501010 0.000000
vt 0.501010 0.500000
vt 0.500000 0.500000
vt 0.500000 0.000000
vt 0.502020 0.000000
vt 0.502020 0.500000
vt 0.501010 0.500000
vt 0.501010 0.000000
vt 0.503030 0.000000
vt 0.503030 0.500000
vt 0.502020 0.500000
vt 0.502020 0.000000
vn 0.0000 -1.0000 0.0000
vn 0.0000 1.0000 0.0000
vn 0.0000 0.0000 1.0000
vn 1.0000 0.0000 0.0000
vn -1.0000 0.0000 0.0000
vn 0.0000 0.0000 -1.0000
usemtl マテリアル
s off
f 1/1/1 3/2/1 4/3/1 2/4/1
f 5/5/2 6/6/2 8/7/2 7/8/2
f 1/9/3 2/10/3 6/11/3 5/12/3
f 2/13/4 4/14/4 8/15/4 6/16/4
f 3/17/5 1/18/5 5/19/5 7/20/5
f 4/21/6 3/22/6 7/23/6 8/24/6
