# Blender 3.3.1
# www.blender.org
mtllib Arrow.mtl
o Cube
v -1.000000 -0.196114 0.320322
v -1.000000 0.196114 0.320322
v -1.000000 -0.196114 -0.320322
v -1.000000 0.196114 -0.320322
v 1.000000 -0.196114 0.320322
v 1.000000 0.196114 0.320322
v 1.000000 -0.196114 -0.320322
v 1.000000 0.196114 -0.320322
v -1.000000 -0.196114 0.000000
v -1.000000 0.196114 0.000000
v 1.000000 -0.196114 0.000000
v 1.000000 0.196114 0.000000
v -1.000000 -0.196114 0.640643
v -1.000000 0.196114 0.640643
v -1.000000 -0.196114 -0.640643
v -1.000000 0.196114 -0.640643
v -1.746019 -0.196114 0.000000
v -1.746019 0.196114 0.000000
vn -0.0000 1.0000 -0.0000
vn -0.0000 -0.0000 -1.0000
vn 1.0000 -0.0000 -0.0000
vn -0.0000 -0.0000 1.0000
vn -0.0000 -1.0000 -0.0000
vn -0.6515 -0.0000 -0.7587
vn -0.6515 -0.0000 0.7587
vt 0.375000 1.000000
vt 0.125000 0.750000
vt 0.875000 0.750000
vt 0.625000 1.000000
vt 0.375000 0.250000
vt 0.125000 0.500000
vt 0.625000 0.250000
vt 0.875000 0.500000
vt 0.375000 0.750000
vt 0.625000 0.750000
vt 0.375000 0.500000
vt 0.625000 0.500000
vt 0.125000 0.625000
vt 0.875000 0.625000
vt 0.375000 0.625000
vt 0.625000 0.625000
vt 0.375000 0.000000
vt 0.125000 0.750000
vt 0.375000 1.000000
vt 0.875000 0.750000
vt 0.625000 0.000000
vt 0.625000 1.000000
vt 0.125000 0.500000
vt 0.375000 0.250000
vt 0.875000 0.500000
vt 0.625000 0.250000
vt 0.375000 0.125000
vt 0.125000 0.625000
vt 0.875000 0.625000
vt 0.625000 0.125000
s 0
usemtl Material.008
f 4/8/1 18/29/1 10/14/1
f 4/7/2 7/11/2 3/5/2
f 12/16/3 5/9/3 11/15/3
f 6/10/4 1/1/4 5/9/4
f 11/15/5 1/2/5 9/13/5
f 10/14/1 6/10/1 12/16/1
f 4/8/1 12/16/1 8/12/1
f 7/11/5 9/13/5 3/6/5
f 8/12/3 11/15/3 7/11/3
f 2/3/1 18/29/1 14/20/1
f 18/30/6 15/24/6 17/27/6
f 14/21/7 17/27/7 13/17/7
f 1/2/5 17/28/5 9/13/5
f 3/5/3 16/26/3 4/7/3
f 3/6/5 17/28/5 15/23/5
f 2/4/3 13/19/3 1/1/3
f 4/8/1 16/25/1 18/29/1
f 4/7/2 8/12/2 7/11/2
f 12/16/3 6/10/3 5/9/3
f 6/10/4 2/4/4 1/1/4
f 11/15/5 5/9/5 1/2/5
f 10/14/1 2/3/1 6/10/1
f 4/8/1 10/14/1 12/16/1
f 7/11/5 11/15/5 9/13/5
f 8/12/3 12/16/3 11/15/3
f 2/3/1 10/14/1 18/29/1
f 18/30/6 16/26/6 15/24/6
f 14/21/7 18/30/7 17/27/7
f 1/2/5 13/18/5 17/28/5
f 3/5/3 15/24/3 16/26/3
f 3/6/5 9/13/5 17/28/5
f 2/4/3 14/22/3 13/19/3
