# Blender 3.3.1
# www.blender.org
mtllib CurveArrow.mtl
o Cube
v -1.000000 0.320507 0.340532
v -1.000000 0.320507 -0.051696
v -1.000000 -0.320137 0.340532
v -1.000000 -0.320137 -0.051696
v 1.000000 0.320507 0.204218
v 1.000000 0.320507 -0.188010
v 1.000000 -0.320137 0.204217
v 1.000000 -0.320137 -0.188010
v -1.000000 0.000185 0.340532
v -1.000000 0.000185 -0.051696
v 1.000000 0.000185 0.204218
v 1.000000 0.000185 -0.188010
v -1.000000 0.640828 0.340533
v -1.000000 0.640828 -0.051695
v -1.000000 -0.640458 0.340532
v -1.000000 -0.640458 -0.051696
v -1.746019 0.000185 -0.007743
v -1.746019 0.000185 -0.399971
v -0.004840 -0.160258 0.558308
v -0.004840 0.320507 0.558309
v -0.004840 -0.161006 0.166080
v -0.004840 0.000185 0.558309
v -0.004840 0.320507 0.166081
v -0.004840 -0.320137 0.362227
v -0.004840 -0.320137 0.558308
v -0.004840 0.320507 0.363657
v -0.004840 -0.320137 0.166080
v -0.004840 0.000185 0.166081
v -0.004840 0.158434 0.166081
v -0.004840 0.160792 0.558309
vn 0.4230 -0.0000 -0.9061
vn -0.0000 -1.0000 -0.0000
vn 1.0000 -0.0000 -0.0000
vn -0.0000 1.0000 -0.0000
vn 0.3324 -0.0000 0.9432
vn 0.2138 -0.0000 -0.9769
vn -0.6515 -0.7587 -0.0000
vn -0.6515 0.7587 -0.0000
vn -0.4230 -0.0000 0.9061
vn -0.2138 -0.0000 0.9769
vn -0.3324 -0.0000 -0.9432
vt 0.125000 0.750000
vt 0.375000 1.000000
vt 0.875000 0.750000
vt 0.625000 1.000000
vt 0.375000 0.250000
vt 0.125000 0.500000
vt 0.625000 0.250000
vt 0.875000 0.500000
vt 0.375000 0.750000
vt 0.625000 0.750000
vt 0.375000 0.500000
vt 0.625000 0.500000
vt 0.125000 0.625000
vt 0.875000 0.625000
vt 0.375000 0.625000
vt 0.625000 0.625000
vt 0.375000 0.000000
vt 0.125000 0.750000
vt 0.375000 1.000000
vt 0.875000 0.750000
vt 0.625000 0.000000
vt 0.625000 1.000000
vt 0.125000 0.500000
vt 0.375000 0.250000
vt 0.875000 0.500000
vt 0.625000 0.250000
vt 0.375000 0.125000
vt 0.125000 0.625000
vt 0.875000 0.625000
vt 0.625000 0.125000
vt 0.250220 0.562390
vt 0.375000 0.875463
vt 0.249537 0.750000
vt 0.750804 0.562098
vt 0.249656 0.625000
vt 0.752008 0.750000
vt 0.625000 0.877008
vt 0.499979 0.375021
vt 0.250503 0.500000
vt 0.375000 0.375503
vt 0.499068 0.875932
vt 0.750461 0.500000
vt 0.625000 0.374539
vt 0.751151 0.625000
vt 0.751492 0.686754
vt 0.249652 0.687674
s 0
usemtl Material.008
f 4/8/1 18/29/1 10/14/1
f 24/38/2 3/5/2 4/7/2
f 12/16/3 5/9/3 11/15/3
f 26/41/4 5/9/4 6/10/4
f 11/15/5 30/46/5 22/35/5
f 10/14/6 29/45/6 28/44/6
f 4/8/6 21/34/6 27/42/6
f 7/11/5 19/31/5 25/39/5
f 8/12/3 11/15/3 7/11/3
f 2/3/1 18/29/1 14/20/1
f 18/30/7 15/24/7 17/27/7
f 14/21/8 17/27/8 13/17/8
f 1/1/9 17/28/9 9/13/9
f 3/5/3 16/26/3 4/7/3
f 3/6/9 17/28/9 15/23/9
f 2/4/3 13/19/3 1/2/3
f 4/8/1 16/25/1 18/29/1
f 4/7/2 27/43/2 24/38/2
f 12/16/3 6/10/3 5/9/3
f 6/10/4 23/37/4 26/41/4
f 5/9/5 30/46/5 11/15/5
f 2/3/6 29/45/6 10/14/6
f 10/14/6 21/34/6 4/8/6
f 11/15/5 19/31/5 7/11/5
f 8/12/3 12/16/3 11/15/3
f 2/3/1 10/14/1 18/29/1
f 18/30/7 16/26/7 15/24/7
f 14/21/8 18/30/8 17/27/8
f 1/1/9 13/18/9 17/28/9
f 3/5/3 15/24/3 16/26/3
f 3/6/9 9/13/9 17/28/9
f 2/4/3 14/22/3 13/19/3
f 30/46/10 9/13/10 22/35/10
f 21/34/11 8/12/11 27/42/11
f 30/46/10 20/33/10 1/1/10
f 21/34/11 28/44/11 12/16/11
f 25/40/2 24/38/2 7/11/2
f 20/32/4 26/41/4 1/2/4
f 29/45/11 12/16/11 28/44/11
f 19/31/10 3/6/10 25/39/10
f 27/43/2 7/11/2 24/38/2
f 23/37/4 1/2/4 26/41/4
f 29/45/11 23/36/11 6/10/11
f 19/31/10 22/35/10 9/13/10
f 24/38/2 25/40/2 3/5/2
f 26/41/4 20/32/4 5/9/4
f 5/9/5 20/33/5 30/46/5
f 2/3/6 23/36/6 29/45/6
f 10/14/6 28/44/6 21/34/6
f 11/15/5 22/35/5 19/31/5
f 30/46/10 1/1/10 9/13/10
f 21/34/11 12/16/11 8/12/11
f 29/45/11 6/10/11 12/16/11
f 19/31/10 9/13/10 3/6/10
f 27/43/2 8/12/2 7/11/2
f 23/37/4 2/4/4 1/2/4
